<?xml version="1.0" encoding="UTF-8"?>
<svg id="Calque_2" data-name="Calque 2" xmlns="http://www.w3.org/2000/svg" viewBox="0 0 245.19 326.24">
  <defs>
    <style>
      .cls-1 {
        fill: #fff;
      }

      .cls-2 {
        fill: #00bfff;
      }

      .cls-3 {
        fill: #ff4500;
      }
    </style>
  </defs>
  <g id="Calque_1-2" data-name="Calque 1">
    <g>
      <path class="cls-3" d="m17,17h117.35c14.44,0,27.48,2.3,39.12,6.88,11.63,4.59,21.66,10.92,30.09,18.98,8.43,8.07,14.84,17.34,19.26,27.79,4.41,10.45,6.62,21.73,6.62,33.84,0,18.71-5.12,35.41-15.35,50.07-10.23,14.68-22.97,23.68-38.21,31.02l69.31,140.66h-55.43c-3.26,0-6.23-1.9-7.6-4.86l-56.23-121.7h-51.16v126.56H25.37c-4.62,0-8.37-3.75-8.37-8.37V17Zm57.77,139.76h54.16c8.82,0,16.34-1.65,22.57-4.95,6.21-3.3,11.33-7.52,15.35-12.66,4.01-5.13,7.01-10.81,9.03-17.06,2-6.23,3.01-12.1,3.01-17.61,0-13.93-4.82-25.31-14.45-34.11-9.63-8.81-21.47-13.21-35.51-13.21h-54.16v99.6Z"/>
      <path class="cls-1" d="m8.5,8.5h117.35c14.44,0,27.48,2.3,39.12,6.88,11.63,4.59,21.66,10.92,30.09,18.98,8.43,8.07,14.84,17.34,19.26,27.79,4.41,10.45,6.62,21.73,6.62,33.84,0,18.71-5.12,35.41-15.35,50.07-10.23,14.68-22.97,23.68-38.21,31.02l69.31,140.66h-55.43c-3.26,0-6.23-1.9-7.6-4.86l-56.23-121.7h-51.16v126.56H16.87c-4.62,0-8.37-3.75-8.37-8.37V8.5Zm57.77,139.76h54.16c8.82,0,16.34-1.65,22.57-4.95,6.21-3.3,11.33-7.52,15.35-12.66,4.01-5.13,7.01-10.81,9.03-17.06,2-6.23,3.01-12.1,3.01-17.61,0-13.93-4.82-25.31-14.45-34.11-9.63-8.81-21.47-13.21-35.51-13.21h-54.16v99.6Z"/>
      <path class="cls-2" d="m0,0h117.35c14.44,0,27.48,2.3,39.12,6.88,11.63,4.59,21.66,10.92,30.09,18.98,8.43,8.07,14.84,17.34,19.26,27.79,4.41,10.45,6.62,21.73,6.62,33.84,0,18.71-5.12,35.41-15.35,50.07-10.23,14.68-22.97,25.68-38.21,33.02l69.31,138.66h-55.43c-3.26,0-6.23-1.9-7.6-4.86l-56.23-121.7h-51.16v126.56H8.37c-4.62,0-8.37-3.75-8.37-8.37V0Zm57.77,139.76h54.16c8.82,0,16.34-1.65,22.57-4.95,6.21-3.3,11.33-7.52,15.35-12.66,4.01-5.13,7.01-10.81,9.03-17.06,2-6.23,3.01-12.1,3.01-17.61,0-13.93-4.82-25.31-14.45-34.11-9.63-8.81-21.47-13.21-35.51-13.21h-54.16v99.6Z"/>
    </g>
  </g>
</svg>