<?xml version="1.0" encoding="UTF-8"?>
<svg id="Calque_2" data-name="Calque 2" xmlns="http://www.w3.org/2000/svg" viewBox="0 0 350 94.11">
  <defs>
    <style>
      .cls-1 {
        fill: #fff;
      }

      .cls-2 {
        fill: #00bfff;
      }

      .cls-3 {
        fill: #ff4500;
      }
    </style>
  </defs>
  <g id="Calque_1-2" data-name="Calque 1">
    <g>
      <path class="cls-2" d="m78.23,20.53c4.25,0,7.95.74,11.09,2.23,3.14,1.49,5.78,3.49,7.91,5.99,2.12,2.51,3.74,5.36,4.85,8.54,1.1,3.19,1.7,6.44,1.79,9.75.08,3.4-.38,6.78-1.4,10.14-1.02,3.36-2.59,6.33-4.72,8.93-2.13,2.59-4.8,4.7-8.03,6.31-3.23,1.61-7.01,2.42-11.35,2.42s-8.12-.81-11.35-2.42c-3.23-1.61-5.91-3.72-8.03-6.31-2.13-2.59-3.7-5.57-4.72-8.93-1.02-3.36-1.49-6.74-1.4-10.14.08-3.32.68-6.57,1.79-9.75,1.1-3.19,2.7-6.04,4.78-8.54,2.08-2.51,4.7-4.51,7.84-5.99,3.14-1.49,6.8-2.23,10.97-2.23Zm.26,43.48c2.3,0,4.34-.45,6.12-1.34,1.79-.89,3.32-2.1,4.59-3.63,1.28-1.53,2.23-3.29,2.87-5.29.64-2,.96-4.1.96-6.31-.09-2.21-.49-4.27-1.21-6.18-.72-1.91-1.72-3.59-3-5.04-1.28-1.44-2.79-2.59-4.53-3.44-1.74-.85-3.72-1.28-5.93-1.28s-4.23.43-6.06,1.28c-1.83.85-3.38,2-4.65,3.44-1.28,1.45-2.25,3.12-2.93,5.04-.68,1.91-1.02,3.98-1.02,6.18s.34,4.44,1.02,6.44c.68,2,1.66,3.76,2.93,5.29,1.28,1.53,2.83,2.72,4.65,3.57,1.83.85,3.89,1.28,6.18,1.28Z"/>
      <path class="cls-2" d="m132.3,20.53c3.65,0,7.06.6,10.2,1.78,3.14,1.19,5.89,2.91,8.22,5.17,2.34,2.25,4.19,5.04,5.55,8.35,1.36,3.31,2.04,7.14,2.04,11.48v25.38h-9.69v-7.91c-1.62,3.06-3.91,5.34-6.89,6.82-2.98,1.49-6.25,2.23-9.82,2.23s-7.01-.68-10.07-2.04c-3.06-1.36-5.7-3.23-7.91-5.61-2.21-2.38-3.95-5.18-5.23-8.42-1.28-3.23-1.91-6.76-1.91-10.58s.57-7.1,1.72-10.33c1.15-3.23,2.81-6.06,4.97-8.48s4.85-4.33,8.03-5.74c3.19-1.4,6.78-2.1,10.78-2.1Zm.13,10.71c-2.3,0-4.38.45-6.25,1.34-1.87.89-3.44,2.08-4.72,3.57-1.28,1.49-2.25,3.19-2.93,5.1-.68,1.91-1.02,3.93-1.02,6.06s.34,4.04,1.02,5.99c.68,1.96,1.66,3.7,2.93,5.23,1.28,1.53,2.83,2.74,4.65,3.63,1.83.89,3.93,1.34,6.31,1.34s4.34-.45,6.12-1.34,3.32-2.1,4.59-3.63,2.25-3.27,2.93-5.23c.68-1.95,1.02-3.95,1.02-5.99s-.32-4.04-.96-5.99c-.64-1.95-1.59-3.68-2.87-5.16-1.28-1.49-2.83-2.68-4.65-3.57-1.83-.89-3.89-1.34-6.18-1.34Z"/>
      <path class="cls-2" d="m203.83,25.89c1.19-1.95,2.63-3.51,4.34-4.65,1.7-1.15,3.65-1.72,5.87-1.72h13.26c5.1,0,9.22,1.51,12.37,4.53,3.14,3.02,4.72,7.46,4.72,13.33v35.32h-11.09v-34.81c0-2.3-.49-4.1-1.47-5.42-.98-1.32-2.53-1.98-4.65-1.98h-11.22c-1.79,0-3.25.77-4.4,2.3s-1.72,3.23-1.72,5.1v34.81h-11.09v-34.94c0-1.61-.47-3.23-1.4-4.85-.94-1.61-2.51-2.42-4.72-2.42h-11.35c-1.7,0-3.1.64-4.21,1.91-1.11,1.28-1.66,3.1-1.66,5.48v34.81h-11.09v-35.19c0-5.52,1.34-9.9,4.02-13.13,2.68-3.23,6.4-4.85,11.16-4.85h12.88c2.72,0,5.08.57,7.08,1.72,2,1.15,3.46,2.7,4.4,4.65Z"/>
      <path class="cls-1" d="m256.88.89c1.79,0,3.21.55,4.27,1.66,1.06,1.11,1.59,2.64,1.59,4.59s-.49,3.36-1.47,4.46c-.98,1.11-2.44,1.66-4.4,1.66s-3.46-.55-4.53-1.66c-1.06-1.1-1.59-2.59-1.59-4.46s.53-3.49,1.59-4.59c1.06-1.1,2.57-1.66,4.53-1.66Zm-5.99,19h11.35v52.79h-11.35V19.89Z"/>
      <path class="cls-1" d="m270.91,72.69V28.56h-5.61v-8.54h5.61v-6.76c0-8.84,3.95-13.26,11.86-13.26h10.46v9.82h-8.16c-1.19,0-2,.3-2.42.89-.43.59-.68,1.49-.77,2.68v6.63h9.31v8.54h-9.18v44.12h-11.09Z"/>
      <path class="cls-1" d="m335.17,20.02l-14.03,40.3-15.3-40.3h-12.11l21.42,54.83c-.43,1.78-1.23,3.57-2.42,5.36-1.19,1.79-2.68,2.68-4.46,2.68h-9.18v11.22h8.67c2.3,0,4.34-.49,6.12-1.47,1.79-.98,3.36-2.23,4.72-3.76,1.36-1.53,2.55-3.25,3.57-5.16s1.87-3.85,2.55-5.8l22.06-57.89h-11.6Z"/>
      <path class="cls-3" d="m338.52,68.96c0-1.95.51-3.46,1.53-4.53,1.02-1.06,2.46-1.59,4.34-1.59,1.7,0,3.06.53,4.08,1.59,1.02,1.06,1.53,2.57,1.53,4.53,0,1.78-.51,3.23-1.53,4.34-1.02,1.11-2.38,1.66-4.08,1.66-1.87,0-3.32-.55-4.34-1.66-1.02-1.1-1.53-2.55-1.53-4.34Z"/>
      <g>
        <rect class="cls-1" y="82.89" width="98.02" height="11.22"/>
        <rect class="cls-2" x="98.02" y="82.89" width="98.02" height="11.22"/>
        <rect class="cls-3" x="196.04" y="82.89" width="98.02" height="11.22"/>
      </g>
      <path class="cls-2" d="m0,1.02h27.2c3.35,0,6.37.53,9.07,1.59,2.7,1.06,5.02,2.53,6.97,4.4,1.95,1.87,3.44,4.02,4.46,6.44,1.02,2.42,1.53,5.04,1.53,7.84,0,4.34-1.19,8.21-3.56,11.6-2.37,3.4-5.32,5.95-8.86,7.65l16.06,32.13h-12.85c-.76,0-1.44-.44-1.76-1.13l-13.03-28.2h-11.86v29.33H1.94c-1.07,0-1.94-.87-1.94-1.94V1.02Zm13.39,32.39h12.55c2.04,0,3.79-.38,5.23-1.15,1.44-.77,2.63-1.74,3.56-2.93.93-1.19,1.63-2.51,2.09-3.95.46-1.44.7-2.81.7-4.08,0-3.23-1.12-5.87-3.35-7.91-2.23-2.04-4.97-3.06-8.23-3.06h-12.55v23.08Z"/>
    </g>
  </g>
</svg>