<?xml version="1.0" encoding="UTF-8"?>
<svg id="Calque_2" data-name="Calque 2" xmlns="http://www.w3.org/2000/svg" viewBox="0 0 1279.37 259.39">
  <defs>
    <style>
      .cls-1 {
        fill: #00bfff;
      }

      .cls-2 {
        opacity: .35;
      }

      .cls-3 {
        fill: #ff4500;
      }
    </style>
  </defs>
  <g id="Calque_1-2" data-name="Calque 1">
    <g class="cls-2">
      <path class="cls-1" d="m1020.59,115.82c-3.66,10.22-7.32,20.44-10.98,30.66-1.47,4.09-6.37,6.06-10.93,4.48-10.21-3.53-20.47-6.87-30.78-10.02-1.15-.35-2.31-.48-3.42-.4-.57.04-1.14.13-1.68.26-.63.16-1.23.4-1.79.69-1.79.92-3.18,2.46-3.75,4.42-.11.37-.22.73-.32,1.1-1.21,4.13,1.5,8.58,6.05,9.97,12.84,3.92,25.62,8.15,38.31,12.69,62.54,22.36,123.1,52.25,180.33,89.72h97.74c-79.8-63.06-167.31-110.87-258.79-143.57Z"/>
      <path class="cls-3" d="m1009.01,140.4c-.55-1.01-1.34-1.92-2.31-2.68-.72-.56-1.55-1.04-2.46-1.4-.14-.06-.28-.12-.43-.17-3.3-1.15-6.61-2.27-9.93-3.38-9.94-3.32-19.93-6.46-29.96-9.42-2.22,7.52-4.44,15.04-6.66,22.56.57-1.96,1.96-3.5,3.75-4.42.56-.29,1.16-.53,1.79-.69.54-.14,1.1-.23,1.68-.26,1.11-.07,2.27.05,3.42.4,10.3,3.14,20.56,6.48,30.78,10.02,4.56,1.58,9.46-.39,10.93-4.48.73-2.04.45-4.2-.6-6.08Z"/>
      <path class="cls-3" d="m964.48,140.54c-.57.04-1.14.13-1.68.26.54-.14,1.1-.23,1.68-.26Z"/>
      <path class="cls-3" d="m962.81,140.8c-.63.16-1.23.4-1.79.69.56-.29,1.16-.53,1.79-.69Z"/>
      <path class="cls-3" d="m998.68,150.96c4.56,1.58,9.46-.39,10.93-4.48-1.47,4.09-6.37,6.06-10.93,4.48Z"/>
      <path class="cls-3" d="m615.21,80.64c.33-.69.78-1.34,1.31-1.92.36-.4.77-.77,1.21-1.1,1.31-.98,2.95-1.63,4.76-1.81,3.36-.33,6.71-.64,10.07-.93,10.08-.88,20.16-1.58,30.26-2.12,4.87-.26,8.7-3.9,8.52-8.16,0-.07,0-.13,0-.2-.17-3.99-3.87-7.14-8.43-7.3-.3-.01-.61,0-.92,0-16.68.89-33.34,2.24-49.96,4.03.84,7.76,1.68,15.51,2.52,23.27-.14-1.32.11-2.61.66-3.77Z"/>
      <path class="cls-1" d="m671.35,64.6c.18,4.26-3.65,7.9-8.52,8.16-10.1.54-20.19,1.25-30.26,2.12-3.36.29-6.72.6-10.07.93-1.82.18-3.46.83-4.76,1.81-.44.33-.85.7-1.21,1.1-.54.58-.98,1.22-1.31,1.92-.56,1.16-.8,2.45-.66,3.77.47,4.24,4.68,7.23,9.46,6.76,16.09-1.56,32.21-2.69,48.36-3.39,97.9-4.24,196.51,7.55,291.56,35.56,10.03,2.96,20.02,6.1,29.96,9.42,3.31,1.11,6.62,2.23,9.93,3.38.15.05.29.11.43.17.91.36,1.74.83,2.46,1.4.98.76,1.77,1.67,2.31,2.68,1.06,1.88,1.33,4.03.6,6.08,3.66-10.22,7.32-20.44,10.98-30.66-13.54-4.84-27.16-9.35-40.86-13.53,13.7,4.18,27.32,8.69,40.86,13.53,2.77-7.73,5.53-15.46,8.3-23.19-.73,2.04-2.38,3.55-4.47,4.32-2.08.77-4.55.82-7.01-.03,2.46.85,4.92.8,7.01.03,2.08-.77,3.73-2.28,4.47-4.32,1.46-4.05-1.34-8.79-6.34-10.52-14.07-4.87-28.23-9.4-42.46-13.59-101.13-29.81-206.05-42.34-310.22-37.83.49,11.24.98,22.47,1.47,33.71,0,.07,0,.13,0,.2Zm313.28,21.65c-2.48-.76-4.98-.59-7,.29,2.03-.88,4.52-1.05,7-.29Zm-11.51,5.91c-.67,2.29-.03,4.69,1.48,6.64-1.51-1.95-2.15-4.35-1.48-6.64Z"/>
      <path class="cls-1" d="m1009.01,140.4c-.54-1.01-1.34-1.92-2.31-2.68.98.76,1.77,1.67,2.31,2.68Z"/>
      <path class="cls-1" d="m1009.01,140.4c1.05,1.88,1.33,4.04.6,6.08.73-2.04.46-4.2-.6-6.08Z"/>
      <path class="cls-1" d="m1004.24,136.33c-.14-.06-.28-.12-.43-.17-3.3-1.15-6.61-2.27-9.93-3.38,3.31,1.11,6.62,2.23,9.93,3.38.15.05.29.11.43.17Z"/>
      <path class="cls-1" d="m615.21,80.64c-.56,1.16-.8,2.45-.66,3.77-.14-1.32.11-2.61.66-3.77Z"/>
      <path class="cls-1" d="m662.83,72.76c4.87-.26,8.7-3.9,8.52-8.16.18,4.26-3.65,7.9-8.52,8.16Z"/>
      <path class="cls-1" d="m622.5,75.82c-1.82.18-3.46.83-4.76,1.81,1.31-.98,2.95-1.63,4.76-1.81Z"/>
      <path class="cls-1" d="m325.37,118.37c-.45,2.87-2.61,5.64-5.87,7.13-6.8,3.12-13.57,6.33-20.31,9.62-3.68,1.8-7.36,3.61-11.02,5.45-2.34,1.18-4.07,3.04-4.94,5.08-.87,2.05-.89,4.28.1,6.21,1.98,3.82,7.3,5.02,11.9,2.7,12.95-6.53,26.04-12.74,39.23-18.63,88.62-39.53,182.38-64.53,277.57-74.79,16.62-1.79,33.28-3.13,49.96-4.03.31-.02.62-.02.92,0,4.56.16,8.26,3.31,8.43,7.3-.49-11.24-.98-22.47-1.47-33.71-.34-7.73-.68-15.45-1.01-23.18,0-.08,0-.16-.01-.24-.18-4.26-4.63-7.55-9.91-7.26-17.72.95-35.41,2.37-53.05,4.28-101.09,10.9-200.65,37.44-294.76,79.42,4.58,10.26,9.17,20.52,13.75,30.78.55,1.24.7,2.57.49,3.87ZM665.03,14.04c-1.48.92-3.28,1.52-5.26,1.62,1.97-.11,3.78-.7,5.26-1.62Zm-54.34,17.85c-.3-.29-.58-.6-.83-.93.26.33.53.64.83.93s.63.56.99.8c-.36-.24-.68-.51-.99-.8Zm6.21-12.98c-5.18.51-8.97,4.41-8.5,8.65-.47-4.24,3.32-8.14,8.5-8.65Z"/>
      <path class="cls-1" d="m611.68,32.69c-.36-.24-.69-.51-.99-.8.3.29.63.56.99.8Z"/>
      <path class="cls-1" d="m671.34,64.41c-.17-3.99-3.87-7.14-8.43-7.3,4.56.16,8.26,3.31,8.43,7.3Z"/>
      <path class="cls-1" d="m612.03,61.14c16.62-1.79,33.28-3.13,49.96-4.03-16.68.89-33.34,2.24-49.96,4.03Z"/>
      <path class="cls-1" d="m267.02,104.42c-1.67.44-3.34.52-4.85.22-1.68-.33-3.16-1.1-4.21-2.27-.35-.39-.65-.83-.9-1.31,5.16,9.98,10.32,19.96,15.49,29.94,13.35-6.9,26.84-13.47,40.44-19.71,2.41-1.11,4.97-1.31,7.09-.71.27.07.53.16.79.25.08.03.15.07.22.1.32.13.62.28.92.45.22.12.42.26.62.4.32.23.63.48.91.76.06.06.11.13.17.19.47.52.88,1.1,1.17,1.76-4.58-10.26-9.17-20.52-13.75-30.78-14.01,6.25-27.9,12.84-41.66,19.78-.81.41-1.63.71-2.45.93Z"/>
      <path class="cls-1" d="m301.15,68.55c-1.03,2.02-2.96,3.85-5.48,5-11.16,5.11-22.24,10.44-33.24,15.99-.47.24-.91.5-1.33.78-4.05,2.69-5.86,7.25-4.04,10.74.25.48.55.92.9,1.31,1.05,1.17,2.52,1.94,4.21,2.27,1.51.3,3.18.23,4.85-.22.82-.22,1.65-.52,2.45-.93,13.76-6.94,27.65-13.53,41.66-19.78-3.19-7.15-6.39-14.3-9.58-21.44.89,1.98.67,4.24-.4,6.28Z"/>
      <path class="cls-1" d="m257.96,102.37c-.35-.39-.65-.83-.9-1.31.25.48.55.92.9,1.31Z"/>
      <path class="cls-1" d="m267.02,104.42c.82-.22,1.65-.52,2.45-.93-.81.41-1.63.71-2.45.93Z"/>
      <path class="cls-1" d="m311.13,83.71c-14.01,6.25-27.9,12.84-41.66,19.78,13.76-6.94,27.65-13.53,41.66-19.78Z"/>
      <path class="cls-1" d="m261.1,90.32c.42-.28.86-.55,1.33-.78,11-5.54,22.08-10.87,33.24-15.99,2.52-1.15,4.45-2.98,5.48-5,1.07-2.04,1.29-4.3.4-6.28-1.75-3.93-7.29-5.31-12.42-2.96-14.42,6.61-28.71,13.57-42.86,20.89,3.6,6.95,7.19,13.91,10.79,20.86-1.81-3.49,0-8.04,4.04-10.74Z"/>
      <path class="cls-1" d="m301.15,68.55c1.07-2.04,1.29-4.3.4-6.28.89,1.98.67,4.24-.4,6.28Z"/>
      <path class="cls-1" d="m261.1,90.32c.42-.28.86-.55,1.33-.78-.47.24-.91.5-1.33.78Z"/>
      <path class="cls-1" d="m301.15,68.55c-1.03,2.02-2.96,3.85-5.48,5,2.52-1.15,4.45-2.98,5.48-5Z"/>
      <path class="cls-3" d="m283.23,145.65c.87-2.05,2.6-3.9,4.94-5.08,3.66-1.85,7.34-3.66,11.02-5.45,6.74-3.29,13.51-6.5,20.31-9.62,3.26-1.49,5.41-4.26,5.87-7.13.21-1.31.06-2.63-.49-3.87-.3-.66-.7-1.25-1.17-1.76-.06-.06-.11-.13-.17-.19-.28-.28-.58-.53-.91-.76-.2-.14-.41-.27-.62-.4-.29-.17-.6-.32-.92-.45-.08-.03-.15-.07-.22-.1-.26-.1-.52-.18-.79-.25-2.12-.6-4.68-.4-7.09.71-13.61,6.23-27.09,12.8-40.44,19.71,3.6,6.95,7.19,13.91,10.79,20.86-1-1.93-.98-4.16-.1-6.21Z"/>
      <path class="cls-3" d="m283.23,145.65c.87-2.05,2.6-3.9,4.94-5.08,3.66-1.85,7.34-3.66,11.02-5.45-3.68,1.8-7.36,3.61-11.02,5.45-2.34,1.18-4.07,3.04-4.94,5.08Z"/>
      <path class="cls-3" d="m325.37,118.37c.21-1.31.06-2.63-.49-3.87.55,1.24.7,2.57.49,3.87Z"/>
      <path class="cls-3" d="m323.54,112.54c.06.06.11.13.17.19-.06-.06-.11-.13-.17-.19Z"/>
      <path class="cls-3" d="m320.08,110.59c-2.12-.6-4.68-.4-7.09.71,2.41-1.11,4.97-1.31,7.09-.71Z"/>
      <path class="cls-3" d="m322.01,111.39c.22.12.42.26.62.4-.2-.14-.41-.27-.62-.4Z"/>
      <path class="cls-3" d="m320.87,110.84c.08.03.15.07.22.1-.08-.03-.15-.07-.22-.1Z"/>
      <path class="cls-1" d="m257.06,101.05c-3.6-6.95-7.19-13.91-10.79-20.86C157.49,126.08,74.3,185.87,0,259.39h83.96c58.47-51.06,121.85-93.9,188.59-128.39-5.16-9.98-10.32-19.96-15.49-29.94Z"/>
    </g>
  </g>
</svg>